<?xml version="1.0" encoding="UTF-8"?>
<svg width="153px" height="30px" viewBox="0 0 153 30" version="1.1" xmlns="http://www.w3.org/2000/svg" xmlns:xlink="http://www.w3.org/1999/xlink">
    <title>tatamdlogo</title>
    <g id="changes-Main" stroke="none" stroke-width="1" fill="none" fill-rule="evenodd">
        <g id="Profile-Picture" transform="translate(-100, -70)" fill="#1860AA" fill-rule="nonzero">
            <g id="tatamdlogo" transform="translate(100, 70)">
                <path d="M136.702171,10.3518318 L134.609943,10.3518318 L134.609943,19.6477612 L136.702171,19.6477612 C139.77344,19.6477612 141.812423,17.9767978 141.812423,15.0260515 L141.812423,14.9735414 C141.812423,12.0488467 139.77344,10.3518318 136.702171,10.3518318 Z M147.081584,14.9478969 C147.081584,20.2225237 143.188942,24.1396201 136.516433,24.1396201 L129.473274,24.1396201 L129.473274,5.86037987 L136.62251,5.86037987 C143.241775,5.86037987 147.081584,9.62035279 147.081584,14.8953867 L147.081584,14.9478969 Z M126.194804,24.1396201 L121.084964,24.1396201 L121.084964,13.6420624 L116.344536,20.7972863 L116.239285,20.7972863 L111.525685,13.6941655 L111.525685,24.1396201 L106.49468,24.1396201 L106.49468,5.86037987 L111.923162,5.86037987 L116.344536,12.9370421 L120.766735,5.86037987 L126.194804,5.86037987 L126.194804,24.1396201 Z M88.6147809,0 L100.576264,30 L153,30 L153,0 L88.6147809,0 Z M0,4.26332288 L21.602804,4.26332288 L21.602804,10.860815 L15.4057329,10.860815 L15.4057329,26.7139812 L6.40403122,26.7139812 L6.40403122,10.8597492 L0,10.8597492 L0,4.26332288 Z M32.5450242,13.3335423 L27.9961671,26.715047 L19.3507783,26.715047 L27.8297455,4.26332288 L37.2186975,4.26332288 L45.9024913,26.7139812 L37.1493552,26.7139812 L32.5439574,13.3346082 L32.5450242,13.3335423 Z M43.8371566,4.26332288 L65.4399605,4.26332288 L65.4399605,10.860815 L59.2439563,10.860815 L59.2439563,26.7139812 L50.2422546,26.7139812 L50.2422546,10.8597492 L43.8371566,10.8597492 L43.8371566,4.26332288 L43.8371566,4.26332288 Z M76.3843144,13.3335423 L71.8343905,26.7139812 L63.1890017,26.7139812 L71.6711693,4.26332288 L81.0569209,4.26332288 L89.7375143,26.7139812 L80.9886454,26.7139812 L76.3843144,13.3346082 L76.3843144,13.3335423 Z" id="Tata-MD-Logo-Blue-Copy"></path>
            </g>
        </g>
    </g>
</svg>